<mxfile host="Electron" modified="2024-02-05T01:51:40.989Z" agent="Mozilla/5.0 (Macintosh; Intel Mac OS X 10_15_7) AppleWebKit/537.36 (KHTML, like Gecko) draw.io/23.0.2 Chrome/120.0.6099.109 Electron/28.1.0 Safari/537.36" etag="5JugRxngkZaiKGOUjsyY" version="23.0.2" type="device">
  <diagram name="Page-1" id="rQc-NtEMydH7Jgx6tEHq">
    <mxGraphModel dx="670" dy="575" grid="1" gridSize="10" guides="1" tooltips="1" connect="1" arrows="1" fold="1" page="1" pageScale="1" pageWidth="850" pageHeight="1100" math="0" shadow="0">
      <root>
        <mxCell id="0" />
        <mxCell id="1" parent="0" />
        <mxCell id="OGTLL7bx2MiKNpNvBXMq-10" style="edgeStyle=orthogonalEdgeStyle;rounded=0;orthogonalLoop=1;jettySize=auto;html=1;entryX=0.5;entryY=0;entryDx=0;entryDy=0;" parent="1" source="OGTLL7bx2MiKNpNvBXMq-1" target="GkcRWXObRlPU_Z0IFuHh-3" edge="1">
          <mxGeometry relative="1" as="geometry">
            <mxPoint x="160" y="220" as="targetPoint" />
            <Array as="points">
              <mxPoint x="170" y="220" />
              <mxPoint x="170" y="220" />
            </Array>
          </mxGeometry>
        </mxCell>
        <mxCell id="GkcRWXObRlPU_Z0IFuHh-10" style="edgeStyle=orthogonalEdgeStyle;rounded=0;orthogonalLoop=1;jettySize=auto;html=1;exitX=0.5;exitY=0;exitDx=0;exitDy=0;entryX=0;entryY=0.5;entryDx=0;entryDy=0;" edge="1" parent="1" source="OGTLL7bx2MiKNpNvBXMq-1" target="GkcRWXObRlPU_Z0IFuHh-9">
          <mxGeometry relative="1" as="geometry" />
        </mxCell>
        <mxCell id="GkcRWXObRlPU_Z0IFuHh-11" style="edgeStyle=orthogonalEdgeStyle;rounded=0;orthogonalLoop=1;jettySize=auto;html=1;entryX=0.5;entryY=1;entryDx=0;entryDy=0;" edge="1" parent="1" source="OGTLL7bx2MiKNpNvBXMq-1" target="GkcRWXObRlPU_Z0IFuHh-9">
          <mxGeometry relative="1" as="geometry" />
        </mxCell>
        <mxCell id="OGTLL7bx2MiKNpNvBXMq-1" value="x" style="ellipse;whiteSpace=wrap;html=1;aspect=fixed;fillColor=#CCCCCC;" parent="1" vertex="1">
          <mxGeometry x="40" y="200" width="40" height="40" as="geometry" />
        </mxCell>
        <mxCell id="OGTLL7bx2MiKNpNvBXMq-12" style="edgeStyle=orthogonalEdgeStyle;rounded=0;orthogonalLoop=1;jettySize=auto;html=1;entryX=0.5;entryY=1;entryDx=0;entryDy=0;" parent="1" source="OGTLL7bx2MiKNpNvBXMq-2" target="GkcRWXObRlPU_Z0IFuHh-3" edge="1">
          <mxGeometry relative="1" as="geometry">
            <mxPoint x="160" y="240" as="targetPoint" />
          </mxGeometry>
        </mxCell>
        <mxCell id="OGTLL7bx2MiKNpNvBXMq-2" value="y" style="ellipse;whiteSpace=wrap;html=1;aspect=fixed;fillColor=#CCCCCC;" parent="1" vertex="1">
          <mxGeometry x="40" y="280" width="40" height="40" as="geometry" />
        </mxCell>
        <mxCell id="OGTLL7bx2MiKNpNvBXMq-14" style="edgeStyle=orthogonalEdgeStyle;rounded=0;orthogonalLoop=1;jettySize=auto;html=1;entryX=0;entryY=0.5;entryDx=0;entryDy=0;" parent="1" source="OGTLL7bx2MiKNpNvBXMq-3" target="GkcRWXObRlPU_Z0IFuHh-4" edge="1">
          <mxGeometry relative="1" as="geometry">
            <mxPoint x="280" y="379.9999999999998" as="targetPoint" />
          </mxGeometry>
        </mxCell>
        <mxCell id="OGTLL7bx2MiKNpNvBXMq-3" value="z" style="ellipse;whiteSpace=wrap;html=1;aspect=fixed;fillColor=#CCCCCC;" parent="1" vertex="1">
          <mxGeometry x="40" y="360" width="40" height="40" as="geometry" />
        </mxCell>
        <mxCell id="OGTLL7bx2MiKNpNvBXMq-15" style="edgeStyle=orthogonalEdgeStyle;rounded=0;orthogonalLoop=1;jettySize=auto;html=1;exitX=1;exitY=0.5;exitDx=0;exitDy=0;entryX=0.5;entryY=0;entryDx=0;entryDy=0;" parent="1" source="GkcRWXObRlPU_Z0IFuHh-3" target="GkcRWXObRlPU_Z0IFuHh-4" edge="1">
          <mxGeometry relative="1" as="geometry">
            <mxPoint x="240" y="230" as="sourcePoint" />
            <mxPoint x="280" y="359.9999999999998" as="targetPoint" />
          </mxGeometry>
        </mxCell>
        <mxCell id="OGTLL7bx2MiKNpNvBXMq-25" style="edgeStyle=orthogonalEdgeStyle;rounded=0;orthogonalLoop=1;jettySize=auto;html=1;entryX=0.5;entryY=1;entryDx=0;entryDy=0;" parent="1" source="OGTLL7bx2MiKNpNvBXMq-17" target="GkcRWXObRlPU_Z0IFuHh-6" edge="1">
          <mxGeometry relative="1" as="geometry">
            <mxPoint x="385" y="310" as="targetPoint" />
          </mxGeometry>
        </mxCell>
        <mxCell id="GkcRWXObRlPU_Z0IFuHh-12" style="edgeStyle=orthogonalEdgeStyle;rounded=0;orthogonalLoop=1;jettySize=auto;html=1;entryX=0.5;entryY=1;entryDx=0;entryDy=0;" edge="1" parent="1" source="OGTLL7bx2MiKNpNvBXMq-17" target="GkcRWXObRlPU_Z0IFuHh-2">
          <mxGeometry relative="1" as="geometry" />
        </mxCell>
        <mxCell id="OGTLL7bx2MiKNpNvBXMq-17" value="a" style="ellipse;whiteSpace=wrap;html=1;" parent="1" vertex="1">
          <mxGeometry x="300" y="360" width="40" height="40" as="geometry" />
        </mxCell>
        <mxCell id="OGTLL7bx2MiKNpNvBXMq-23" style="edgeStyle=orthogonalEdgeStyle;rounded=0;orthogonalLoop=1;jettySize=auto;html=1;entryX=0;entryY=0.5;entryDx=0;entryDy=0;exitX=1;exitY=0.5;exitDx=0;exitDy=0;" parent="1" source="GkcRWXObRlPU_Z0IFuHh-2" target="OGTLL7bx2MiKNpNvBXMq-22" edge="1">
          <mxGeometry relative="1" as="geometry">
            <mxPoint x="240" y="140" as="sourcePoint" />
          </mxGeometry>
        </mxCell>
        <mxCell id="OGTLL7bx2MiKNpNvBXMq-26" style="edgeStyle=orthogonalEdgeStyle;rounded=0;orthogonalLoop=1;jettySize=auto;html=1;entryX=0;entryY=0.25;entryDx=0;entryDy=0;" parent="1" source="OGTLL7bx2MiKNpNvBXMq-22" edge="1">
          <mxGeometry relative="1" as="geometry">
            <mxPoint x="510" y="290" as="targetPoint" />
          </mxGeometry>
        </mxCell>
        <mxCell id="OGTLL7bx2MiKNpNvBXMq-28" style="edgeStyle=orthogonalEdgeStyle;rounded=0;orthogonalLoop=1;jettySize=auto;html=1;entryX=0.5;entryY=0;entryDx=0;entryDy=0;" parent="1" source="OGTLL7bx2MiKNpNvBXMq-22" target="GkcRWXObRlPU_Z0IFuHh-5" edge="1">
          <mxGeometry relative="1" as="geometry">
            <Array as="points" />
            <mxPoint x="630" y="140" as="targetPoint" />
          </mxGeometry>
        </mxCell>
        <mxCell id="OGTLL7bx2MiKNpNvBXMq-22" value="b" style="ellipse;whiteSpace=wrap;html=1;" parent="1" vertex="1">
          <mxGeometry x="425" y="120" width="40" height="40" as="geometry" />
        </mxCell>
        <mxCell id="OGTLL7bx2MiKNpNvBXMq-29" style="edgeStyle=orthogonalEdgeStyle;rounded=0;orthogonalLoop=1;jettySize=auto;html=1;entryX=0.5;entryY=1;entryDx=0;entryDy=0;exitX=1;exitY=0.5;exitDx=0;exitDy=0;" parent="1" source="GkcRWXObRlPU_Z0IFuHh-6" target="GkcRWXObRlPU_Z0IFuHh-5" edge="1">
          <mxGeometry relative="1" as="geometry">
            <mxPoint x="590" y="300" as="sourcePoint" />
            <mxPoint x="630" y="160" as="targetPoint" />
          </mxGeometry>
        </mxCell>
        <mxCell id="OGTLL7bx2MiKNpNvBXMq-31" style="edgeStyle=orthogonalEdgeStyle;rounded=0;orthogonalLoop=1;jettySize=auto;html=1;exitX=1;exitY=0.5;exitDx=0;exitDy=0;entryX=0;entryY=0.5;entryDx=0;entryDy=0;" parent="1" source="GkcRWXObRlPU_Z0IFuHh-5" target="OGTLL7bx2MiKNpNvBXMq-30" edge="1">
          <mxGeometry relative="1" as="geometry">
            <mxPoint x="600" y="200" as="sourcePoint" />
            <mxPoint x="620" y="220" as="targetPoint" />
            <Array as="points" />
          </mxGeometry>
        </mxCell>
        <mxCell id="OGTLL7bx2MiKNpNvBXMq-30" value="w" style="ellipse;whiteSpace=wrap;html=1;" parent="1" vertex="1">
          <mxGeometry x="595" y="200" width="40" height="40" as="geometry" />
        </mxCell>
        <mxCell id="GkcRWXObRlPU_Z0IFuHh-2" value="&lt;font style=&quot;font-size: 18px;&quot;&gt;ᐧ&lt;/font&gt;" style="ellipse;whiteSpace=wrap;html=1;aspect=fixed;" vertex="1" parent="1">
          <mxGeometry x="370" y="130" width="20" height="20" as="geometry" />
        </mxCell>
        <mxCell id="GkcRWXObRlPU_Z0IFuHh-3" value="&lt;font style=&quot;font-size: 18px;&quot;&gt;ᐧ&lt;/font&gt;" style="ellipse;whiteSpace=wrap;html=1;aspect=fixed;" vertex="1" parent="1">
          <mxGeometry x="190" y="250" width="20" height="20" as="geometry" />
        </mxCell>
        <mxCell id="GkcRWXObRlPU_Z0IFuHh-8" style="edgeStyle=orthogonalEdgeStyle;rounded=0;orthogonalLoop=1;jettySize=auto;html=1;entryX=0;entryY=0.5;entryDx=0;entryDy=0;" edge="1" parent="1" source="GkcRWXObRlPU_Z0IFuHh-4" target="OGTLL7bx2MiKNpNvBXMq-17">
          <mxGeometry relative="1" as="geometry" />
        </mxCell>
        <mxCell id="GkcRWXObRlPU_Z0IFuHh-4" value="&lt;div style=&quot;&quot;&gt;&lt;span style=&quot;background-color: initial;&quot;&gt;&lt;font style=&quot;font-size: 12px;&quot;&gt;+&lt;/font&gt;&lt;/span&gt;&lt;/div&gt;" style="ellipse;whiteSpace=wrap;html=1;aspect=fixed;align=center;" vertex="1" parent="1">
          <mxGeometry x="230" y="370" width="20" height="20" as="geometry" />
        </mxCell>
        <mxCell id="GkcRWXObRlPU_Z0IFuHh-5" value="&lt;div style=&quot;&quot;&gt;&lt;span style=&quot;background-color: initial;&quot;&gt;&lt;font style=&quot;font-size: 12px;&quot;&gt;+&lt;/font&gt;&lt;/span&gt;&lt;/div&gt;" style="ellipse;whiteSpace=wrap;html=1;aspect=fixed;align=center;" vertex="1" parent="1">
          <mxGeometry x="540" y="210" width="20" height="20" as="geometry" />
        </mxCell>
        <mxCell id="GkcRWXObRlPU_Z0IFuHh-6" value="&lt;font style=&quot;font-size: 18px;&quot;&gt;ᐧ&lt;/font&gt;" style="ellipse;whiteSpace=wrap;html=1;aspect=fixed;" vertex="1" parent="1">
          <mxGeometry x="500" y="290" width="20" height="20" as="geometry" />
        </mxCell>
        <mxCell id="GkcRWXObRlPU_Z0IFuHh-14" style="edgeStyle=orthogonalEdgeStyle;rounded=0;orthogonalLoop=1;jettySize=auto;html=1;exitX=1;exitY=0.5;exitDx=0;exitDy=0;entryX=0;entryY=0.5;entryDx=0;entryDy=0;" edge="1" parent="1" source="GkcRWXObRlPU_Z0IFuHh-9" target="GkcRWXObRlPU_Z0IFuHh-2">
          <mxGeometry relative="1" as="geometry" />
        </mxCell>
        <mxCell id="GkcRWXObRlPU_Z0IFuHh-9" value="&lt;div style=&quot;&quot;&gt;&lt;span style=&quot;background-color: initial;&quot;&gt;&lt;font style=&quot;font-size: 12px;&quot;&gt;+&lt;/font&gt;&lt;/span&gt;&lt;/div&gt;" style="ellipse;whiteSpace=wrap;html=1;aspect=fixed;align=center;" vertex="1" parent="1">
          <mxGeometry x="240" y="130" width="20" height="20" as="geometry" />
        </mxCell>
      </root>
    </mxGraphModel>
  </diagram>
</mxfile>
